<svg xmlns="http://www.w3.org/2000/svg" width="36" height="35" fill="none"><mask id="a" width="34" height="35" x="1" y="0" maskUnits="userSpaceOnUse" style="mask-type:luminance"><path fill="#fff" d="M35 .09H1v34h34z"/></mask><g mask="url(#a)"><mask id="b" width="34" height="35" x="1" y="0" maskUnits="userSpaceOnUse" style="mask-type:luminance"><path fill="#fff" d="M1 .09h34v34H1z"/></mask><g stroke="#050B20" stroke-linecap="round" stroke-linejoin="round" stroke-miterlimit="10" stroke-width="2" mask="url(#b)"><path d="M7.375 21.871H5.68a3.684 3.684 0 0 1-3.684-3.684v-2.69h21.317l10.69 1.062v1.628a3.686 3.686 0 0 1-3.683 3.684h-1.695M24.375 21.871h-12.75"/><path d="M11.625 21.871a2.125 2.125 0 1 1-4.25 0 2.125 2.125 0 0 1 4.25 0M28.625 21.871a2.125 2.125 0 1 1-4.25 0 2.125 2.125 0 0 1 4.25 0M3.657 18.684H2.03M11.144 15.496l-.54-2.562a1.86 1.86 0 0 1 3.637-.774l2.05 9.711M23.313 15.496l-2.125-5.312"/><path d="M1.996 15.496a6.28 6.28 0 0 1 5.733-3.718h3"/></g></g></svg>